<svg width="21" height="20" viewBox="0 0 21 20" fill="none" xmlns="http://www.w3.org/2000/svg">
<path d="M17.8689 14.2874C17.5916 14.928 17.2634 15.5176 16.8832 16.0596C16.3649 16.7986 15.9405 17.3101 15.6135 17.5941C15.1065 18.0604 14.5633 18.2992 13.9816 18.3127C13.5641 18.3127 13.0605 18.1939 12.4743 17.9529C11.8862 17.713 11.3457 17.5941 10.8515 17.5941C10.3332 17.5941 9.77733 17.713 9.18276 17.9529C8.58728 18.1939 8.10757 18.3195 7.74081 18.332C7.18302 18.3557 6.62704 18.1102 6.07207 17.5941C5.71787 17.2852 5.27483 16.7556 4.74408 16.0053C4.17464 15.2041 3.70647 14.275 3.3397 13.2158C2.94691 12.0717 2.75 10.9638 2.75 9.8912C2.75 8.66257 3.01549 7.60289 3.54725 6.71488C3.96517 6.0016 4.52115 5.43894 5.217 5.02589C5.91285 4.61283 6.66472 4.40235 7.47442 4.38888C7.91746 4.38888 8.49845 4.52592 9.22044 4.79526C9.9404 5.06549 10.4027 5.20254 10.6054 5.20254C10.7569 5.20254 11.2704 5.04229 12.141 4.72283C12.9643 4.42656 13.6591 4.30389 14.2283 4.35221C15.7708 4.4767 16.9296 5.08473 17.7002 6.18017C16.3208 7.01601 15.6384 8.18671 15.652 9.68852C15.6644 10.8583 16.0888 11.8318 16.9228 12.6047C17.3008 12.9634 17.7229 13.2407 18.1925 13.4376C18.0907 13.7329 17.9832 14.0159 17.8689 14.2874ZM14.3313 0.366985C14.3313 1.28386 13.9963 2.13995 13.3287 2.93233C12.5229 3.87432 11.5484 4.41864 10.4915 4.33275C10.478 4.22275 10.4702 4.10698 10.4702 3.98533C10.4702 3.10513 10.8534 2.16314 11.5339 1.39294C11.8736 1.00297 12.3057 0.678721 12.8296 0.420059C13.3524 0.165256 13.847 0.0243441 14.3121 0.000213623C14.3257 0.122786 14.3313 0.245365 14.3313 0.366973V0.366985Z" fill="#0C1320"/>
</svg>
