<svg width="24" height="24" viewBox="0 0 24 24" fill="none" xmlns="http://www.w3.org/2000/svg">
<path fill-rule="evenodd" clip-rule="evenodd" d="M5.39322 1.03694C4.68635 1.11883 3.84133 1.43584 3.20163 1.85912C2.40246 2.38792 1.72521 3.24189 1.3435 4.20222C1.00103 5.06373 1.01585 4.83006 0.996159 9.67966C0.977268 14.3239 0.988002 14.6245 1.19927 15.3699C1.6713 17.035 3.03888 18.3855 4.6991 18.8262L5.0155 18.9102V20.566C5.0155 21.9544 5.02722 22.2497 5.08807 22.3953C5.27149 22.8344 5.78107 23.0907 6.22999 22.9699C6.35632 22.9359 7.49589 22.2049 9.37521 20.9525L12.3223 18.9885L15.5947 18.9728L18.8671 18.957L19.3099 18.8285C21.3133 18.247 22.7343 16.5803 22.9684 14.5372C23.031 13.9912 23.0298 6.01661 22.9671 5.46091C22.8986 4.85406 22.7658 4.40734 22.4792 3.82028C22.1836 3.21484 21.8943 2.81917 21.4167 2.36716C20.6171 1.61036 19.6392 1.15628 18.5467 1.03445C17.9999 0.973468 5.92127 0.975765 5.39322 1.03694ZM5.78144 7.02878C5.00467 7.21614 4.7516 8.20173 5.34307 8.73606C5.44286 8.8262 5.6051 8.92234 5.70358 8.94972C5.95371 9.01919 18.0461 9.01919 18.2962 8.94972C18.3947 8.92234 18.5569 8.8262 18.6567 8.73606C19.1622 8.27936 19.0656 7.46111 18.4666 7.12497L18.2577 7.00778L12.0936 7.00042C8.70339 6.99639 5.86291 7.00914 5.78144 7.02878ZM7.64191 11.0673C6.90255 11.3649 6.79094 12.3587 7.44532 12.8182L7.64857 12.9609H11.9999H16.3512L16.5544 12.8182C17.1326 12.4123 17.1326 11.5877 16.5544 11.1817L16.3512 11.039L12.0544 11.0299C9.29453 11.024 7.71625 11.0374 7.64191 11.0673Z" fill="#A6A6A6"/>
</svg>
