<svg width="184" height="146" viewBox="0 0 184 146" fill="none" xmlns="http://www.w3.org/2000/svg">
<path d="M20.6357 145.923L20.347 145.389C24.2173 143.297 29.034 140.693 31.5499 136.421C34.0299 132.208 34.0856 126.489 31.6951 121.493C29.6608 117.242 25.9238 113.433 20.8882 110.479C19.895 109.896 18.8523 109.343 17.844 108.809C15.4067 107.518 12.8864 106.183 10.8083 104.289C7.94606 101.68 5.78043 97.3016 7.39454 93.4018C7.92539 92.1571 8.79476 91.086 9.90395 90.3103C11.0131 89.5346 12.3177 89.0853 13.6695 89.0134L13.7038 89.6192C12.4653 89.6849 11.2701 90.0962 10.2537 90.8065C9.23738 91.5168 8.44055 92.4976 7.95369 93.6377C6.45376 97.2617 8.51166 101.374 11.2172 103.84C13.2385 105.683 15.7243 107 18.1282 108.273C19.1423 108.81 20.1909 109.366 21.1956 109.955C26.3359 112.971 30.1559 116.871 32.2426 121.231C34.7191 126.406 34.6541 132.345 32.073 136.728C29.4714 141.147 24.5723 143.795 20.6357 145.923Z" fill="#F1F1F1"/>
<path d="M17.5163 92.2109C20.4493 92.2109 22.827 91.0566 22.827 89.6326C22.827 88.2087 20.4493 87.0543 17.5163 87.0543C14.5833 87.0543 12.2056 88.2087 12.2056 89.6326C12.2056 91.0566 14.5833 92.2109 17.5163 92.2109Z" fill="#F1F1F1"/>
<path d="M21.7646 109.197C24.6976 109.197 27.0753 108.043 27.0753 106.619C27.0753 105.195 24.6976 104.041 21.7646 104.041C18.8315 104.041 16.4539 105.195 16.4539 106.619C16.4539 108.043 18.8315 109.197 21.7646 109.197Z" fill="#F1F1F1"/>
<path d="M12.0536 111.927C14.9867 111.927 17.3643 110.773 17.3643 109.349C17.3643 107.925 14.9867 106.771 12.0536 106.771C9.12061 106.771 6.74292 107.925 6.74292 109.349C6.74292 110.773 9.12061 111.927 12.0536 111.927Z" fill="#F1F1F1"/>
<path d="M27.2272 126.184C30.1602 126.184 32.5379 125.03 32.5379 123.606C32.5379 122.182 30.1602 121.027 27.2272 121.027C24.2942 121.027 21.9165 122.182 21.9165 123.606C21.9165 125.03 24.2942 126.184 27.2272 126.184Z" fill="#F1F1F1"/>
<path d="M37.8485 126.184C40.7816 126.184 43.1593 125.03 43.1593 123.606C43.1593 122.182 40.7816 121.027 37.8485 121.027C34.9155 121.027 32.5378 122.182 32.5378 123.606C32.5378 125.03 34.9155 126.184 37.8485 126.184Z" fill="#F1F1F1"/>
<path d="M183.133 5.90747H94.5203V120.682H183.133V5.90747Z" fill="#E6E6E6"/>
<path d="M178.913 10.9711H97.896V117.306H178.913V10.9711Z" fill="white"/>
<path d="M183.133 0H94.5203V7.59538H183.133V0Z" fill="#E75659"/>
<path d="M99.5221 4.69879C100.265 4.69879 100.867 4.09697 100.867 3.35458C100.867 2.6122 100.265 2.01038 99.5221 2.01038C98.7793 2.01038 98.1772 2.6122 98.1772 3.35458C98.1772 4.09697 98.7793 4.69879 99.5221 4.69879Z" fill="white"/>
<path d="M104.627 4.69879C105.369 4.69879 105.971 4.09697 105.971 3.35458C105.971 2.6122 105.369 2.01038 104.627 2.01038C103.884 2.01038 103.282 2.6122 103.282 3.35458C103.282 4.09697 103.884 4.69879 104.627 4.69879Z" fill="white"/>
<path d="M109.731 4.69879C110.474 4.69879 111.076 4.09697 111.076 3.35458C111.076 2.6122 110.474 2.01038 109.731 2.01038C108.989 2.01038 108.386 2.6122 108.386 3.35458C108.386 4.09697 108.989 4.69879 109.731 4.69879Z" fill="white"/>
<path d="M113.636 66.6705C113.49 66.6705 113.35 66.715 113.247 66.7941C113.145 66.8733 113.087 66.9806 113.087 67.0925C113.087 67.2044 113.145 67.3117 113.247 67.3909C113.35 67.47 113.49 67.5145 113.636 67.5145H143.763C143.909 67.5145 144.048 67.47 144.151 67.3909C144.254 67.3117 144.312 67.2044 144.312 67.0925C144.312 66.9806 144.254 66.8733 144.151 66.7941C144.048 66.715 143.909 66.6705 143.763 66.6705H113.636Z" fill="#E6E6E6"/>
<path d="M113.648 70.0463C113.499 70.0467 113.356 70.1359 113.251 70.2941C113.146 70.4523 113.087 70.6667 113.087 70.8902C113.087 71.1137 113.146 71.3281 113.251 71.4863C113.356 71.6445 113.499 71.7336 113.648 71.7341H129.404C129.553 71.7336 129.696 71.6445 129.801 71.4863C129.906 71.3281 129.965 71.1137 129.965 70.8902C129.965 70.6667 129.906 70.4523 129.801 70.2941C129.696 70.1359 129.553 70.0467 129.404 70.0463H113.648Z" fill="#E6E6E6"/>
<path d="M113.61 89.4567C113.471 89.4567 113.338 89.5011 113.24 89.5803C113.142 89.6594 113.087 89.7667 113.087 89.8786C113.087 89.9905 113.142 90.0979 113.24 90.177C113.338 90.2561 113.471 90.3006 113.61 90.3006H167.419C167.558 90.3006 167.691 90.2561 167.789 90.177C167.887 90.0979 167.942 89.9905 167.942 89.8786C167.942 89.7667 167.887 89.6594 167.789 89.5803C167.691 89.5011 167.558 89.4567 167.419 89.4567H113.61Z" fill="#E6E6E6"/>
<path d="M113.616 92.8324C113.475 92.8329 113.341 92.922 113.242 93.0802C113.142 93.2384 113.087 93.4528 113.087 93.6763C113.087 93.8998 113.142 94.1142 113.242 94.2724C113.341 94.4307 113.475 94.5198 113.616 94.5203H153.91C154.051 94.5198 154.185 94.4307 154.284 94.2724C154.384 94.1142 154.439 93.8998 154.439 93.6763C154.439 93.4528 154.384 93.2384 154.284 93.0802C154.185 92.922 154.051 92.8329 153.91 92.8324H113.616Z" fill="#E6E6E6"/>
<path d="M113.609 97.052C113.47 97.0525 113.337 97.1416 113.239 97.2998C113.142 97.458 113.087 97.6724 113.087 97.8959C113.087 98.1194 113.142 98.3338 113.239 98.492C113.337 98.6503 113.47 98.7394 113.609 98.7399H167.42C167.559 98.7394 167.692 98.6503 167.789 98.492C167.887 98.3338 167.942 98.1194 167.942 97.8959C167.942 97.6724 167.887 97.458 167.789 97.2998C167.692 97.1416 167.559 97.0525 167.42 97.052H113.609Z" fill="#E6E6E6"/>
<path d="M113.616 101.272C113.475 101.272 113.341 101.317 113.242 101.396C113.142 101.475 113.087 101.582 113.087 101.694C113.087 101.805 113.142 101.913 113.242 101.992C113.341 102.071 113.475 102.115 113.616 102.116H153.91C154.051 102.115 154.185 102.071 154.284 101.992C154.384 101.913 154.439 101.805 154.439 101.694C154.439 101.582 154.384 101.475 154.284 101.396C154.185 101.317 154.051 101.272 153.91 101.272H113.616Z" fill="#E6E6E6"/>
<path d="M135.165 48.0668C138.298 48.0668 140.838 45.528 140.838 42.3963C140.838 39.2645 138.298 36.7257 135.165 36.7257C132.031 36.7257 129.491 39.2645 129.491 42.3963C129.491 45.528 132.031 48.0668 135.165 48.0668Z" fill="#A0616A"/>
<path d="M133.368 37.8597C133.368 37.8597 136.015 38.5686 137.386 38.8521C138.757 39.1356 138.616 38.3323 138.616 38.3323C138.616 38.3323 140.412 38.5686 140.317 38.3795C140.223 38.1905 141.074 37.1982 140.081 36.0641C139.088 34.93 139.372 34.0794 139.372 34.0794H138.521L138.285 33.7486H136.961C136.961 33.7486 135.497 32.4658 132.897 32.8439C130.297 33.2219 127.222 34.2211 126.938 35.7805C126.9 35.9921 126.849 36.227 126.79 36.4752C126.079 39.4756 127.59 42.2829 129.157 44.9389C129.542 45.5917 131.405 47.0151 131.357 46.0385C131.309 45.0619 129.68 42.8687 130.815 42.727C131.95 42.5852 133.888 39.7027 133.368 37.8597Z" fill="#2F2E41"/>
<path d="M131.946 60.728C130.851 60.6405 129.765 60.4621 128.699 60.1948L128.759 59.064L129.256 50.0726L129.26 50.0037H139.254L140.822 58.2825L141.034 59.3995C140.62 59.5604 140.201 59.7121 139.774 59.8454C139.769 59.8454 139.769 59.85 139.764 59.85C139.171 60.0339 138.569 60.1948 137.961 60.3281C137.154 60.5021 136.337 60.628 135.515 60.705C134.879 60.7681 134.241 60.7988 133.602 60.797C133.05 60.797 132.494 60.774 131.946 60.728Z" fill="#E75659"/>
<path d="M125.522 59.1284C125.108 58.9491 124.708 58.7561 124.312 58.5538L124.142 58.4665C124.027 58.4067 123.907 58.3423 123.793 58.278C123.636 58.1907 123.484 58.1033 123.337 58.016C123.195 57.9332 123.047 57.8459 122.905 57.7586C122.896 57.754 122.891 57.7494 122.882 57.7494C122.385 57.4322 121.898 57.1058 121.429 56.7519C121.35 56.6921 121.272 56.6323 121.194 56.5726L121.111 55.2487L121.231 55.1752L129.256 50.0727L129.366 50.0037L129.375 49.9991L130.507 50.0037V54.2144C131.146 55.1384 131.578 57.0736 131.845 59.6065C131.882 59.9696 131.914 60.342 131.946 60.7281C130.851 60.6405 129.765 60.4621 128.7 60.1949C128.585 60.1719 128.474 60.1443 128.359 60.1121C127.689 59.9368 127.029 59.725 126.382 59.4778C126.184 59.4042 125.991 59.3261 125.798 59.2479L125.779 59.2387C125.696 59.2019 125.604 59.1652 125.522 59.1284Z" fill="#2F2E41"/>
<path d="M123.792 58.278C123.636 58.1907 123.484 58.1034 123.337 58.0161C123.194 57.9333 123.047 57.846 122.905 57.7586C122.896 57.754 122.891 57.7494 122.882 57.7494C122.385 57.4322 121.898 57.1059 121.429 56.7519C121.35 56.6922 121.272 56.6324 121.194 56.5727C121.157 56.5405 121.12 56.5129 121.079 56.4807C120.785 56.2555 120.5 56.021 120.224 55.7728C120.21 55.7636 120.201 55.7498 120.187 55.7406C120.465 55.5265 120.778 55.3602 121.111 55.2488L121.438 55.3453L123.765 56.044L123.779 56.9864L123.792 58.278Z" fill="#2F2E41"/>
<path d="M143.388 58.2918C143.25 58.3653 143.112 58.4389 142.975 58.5078C142.942 58.5262 142.915 58.54 142.887 58.5538C142.703 58.6457 142.524 58.7376 142.34 58.825C142.335 58.8296 142.326 58.8296 142.326 58.8342C142.317 58.8388 142.303 58.8434 142.294 58.848C141.88 59.0456 141.461 59.2295 141.034 59.3996C140.62 59.5605 140.201 59.7122 139.774 59.8455C139.769 59.8455 139.769 59.8501 139.765 59.8501C139.171 60.0339 138.569 60.1948 137.962 60.3281C137.955 59.9505 138.004 59.574 138.109 59.2111L138.113 59.1467L138.509 52.748L137.98 50.0037L139.498 49.7784L147.845 54.2695C147.845 54.2695 146.925 55.1889 143.149 57.1471C142.815 57.3203 143.306 57.8964 143.388 58.2918Z" fill="#2F2E41"/>
<path d="M135.414 59.6019C134.816 59.657 134.209 59.6846 133.602 59.6846C133.013 59.6846 132.429 59.6616 131.845 59.6065C131.882 59.9696 131.914 60.342 131.946 60.7281C132.494 60.7741 133.05 60.797 133.602 60.797C134.241 60.7989 134.879 60.7682 135.515 60.7051C136.337 60.6281 137.154 60.5022 137.961 60.3282C137.955 59.9506 138.004 59.5741 138.109 59.2111L138.113 59.1468C137.225 59.3628 136.323 59.5148 135.414 59.6019ZM152.793 33.8046C151.821 31.0143 150.252 28.4694 148.195 26.3475C146.138 24.2256 143.643 22.5777 140.884 21.5187C138.124 20.4596 135.167 20.015 132.218 20.2158C129.269 20.4166 126.399 21.2579 123.808 22.6812C121.218 24.1044 118.97 26.0753 117.22 28.4564C115.47 30.8375 114.26 33.5715 113.676 36.4678C113.092 39.364 113.146 42.3528 113.836 45.2257C114.526 48.0987 115.835 50.7866 117.671 53.102C117.855 53.3318 118.044 53.5617 118.237 53.7823C118.255 53.8007 118.265 53.8145 118.278 53.8283C118.753 54.3756 119.258 54.8959 119.791 55.3866C119.92 55.5061 120.053 55.6256 120.187 55.7406C120.201 55.7497 120.21 55.7635 120.224 55.7727C120.5 56.021 120.785 56.2554 121.079 56.4806C121.12 56.5128 121.157 56.5404 121.194 56.5726C121.272 56.6323 121.35 56.6921 121.428 56.7519C121.898 57.1058 122.385 57.4322 122.882 57.7494C122.891 57.7494 122.896 57.754 122.905 57.7586C123.047 57.8459 123.194 57.9332 123.337 58.016C123.484 58.1033 123.636 58.1906 123.792 58.278C123.907 58.3423 124.027 58.4067 124.142 58.4664L124.312 58.5538C124.707 58.756 125.108 58.9491 125.521 59.1284C125.604 59.1652 125.696 59.2019 125.779 59.2387L125.797 59.2479C125.991 59.326 126.184 59.4042 126.382 59.4777C127.029 59.725 127.689 59.9368 128.359 60.1121C128.474 60.1443 128.584 60.1719 128.699 60.1949C129.765 60.4621 130.851 60.6405 131.946 60.7281C132.494 60.7741 133.05 60.797 133.602 60.797C134.241 60.7989 134.879 60.7682 135.515 60.7051C136.337 60.6281 137.154 60.5022 137.961 60.3282C138.569 60.1949 139.171 60.0339 139.764 59.8501C139.769 59.8501 139.769 59.8455 139.774 59.8455C140.201 59.7122 140.62 59.5605 141.034 59.3996C141.461 59.2295 141.88 59.0457 142.294 58.848C142.303 58.8434 142.317 58.8388 142.326 58.8342C142.326 58.8296 142.335 58.8296 142.34 58.825C142.524 58.7377 142.703 58.6457 142.887 58.5538C142.915 58.54 142.942 58.5262 142.974 58.5078C143.112 58.4389 143.25 58.3653 143.388 58.2918C143.397 58.2872 143.402 58.2826 143.411 58.278C143.774 58.0758 144.133 57.8643 144.487 57.639C144.584 57.5793 144.681 57.5195 144.777 57.4506C144.92 57.3632 145.058 57.2667 145.191 57.1702C145.37 57.046 145.55 56.9173 145.725 56.784C145.783 56.7467 145.838 56.7053 145.89 56.6599C146.318 56.3382 146.732 55.998 147.127 55.6394C150.126 52.9682 152.265 49.4678 153.274 45.5812C154.283 41.6945 154.115 37.5961 152.793 33.8046ZM146.782 54.4535C146.284 54.9216 145.762 55.3635 145.219 55.7773C145.099 55.8693 144.975 55.9612 144.851 56.0439C144.731 56.1359 144.612 56.2232 144.487 56.306C144.382 56.3795 144.276 56.4531 144.165 56.522C144.156 56.5312 144.143 56.5358 144.133 56.545C144.055 56.6002 143.972 56.6507 143.894 56.7013C143.65 56.853 143.397 57.0047 143.149 57.1472C143.089 57.1794 143.034 57.2161 142.974 57.2483C142.942 57.2667 142.91 57.2851 142.873 57.3035C142.735 57.3816 142.597 57.4506 142.459 57.5241C142.441 57.5379 142.418 57.5425 142.4 57.5563C142.393 57.5574 142.386 57.5606 142.381 57.5655C142.285 57.6161 142.188 57.662 142.091 57.708C142.009 57.7494 141.93 57.7907 141.848 57.8275C141.512 57.9884 141.167 58.1401 140.822 58.2826C140.459 58.4297 140.091 58.563 139.718 58.6871C139.626 58.7193 139.53 58.756 139.433 58.7836C138.996 58.9215 138.559 59.0457 138.113 59.1468C137.225 59.3628 136.323 59.5148 135.414 59.6019C134.816 59.657 134.209 59.6846 133.602 59.6846C133.013 59.6846 132.429 59.6616 131.845 59.6065C130.803 59.5112 129.771 59.3298 128.759 59.064C128.722 59.0548 128.681 59.0456 128.644 59.0364C127.814 58.8201 127.001 58.5436 126.211 58.209C126.17 58.1907 126.124 58.1768 126.087 58.1585C126.041 58.1401 126 58.1263 125.963 58.1079C125.917 58.0895 125.876 58.0711 125.834 58.0527C125.489 57.9011 125.154 57.7355 124.818 57.5655L124.661 57.4827C124.363 57.3264 124.068 57.1655 123.779 56.9863C123.677 56.9311 123.572 56.8668 123.47 56.8024C123.355 56.7334 123.24 56.6599 123.13 56.5863C123.103 56.568 123.075 56.5496 123.047 56.5312C122.79 56.3565 122.528 56.1818 122.279 55.9934C122.105 55.8647 121.934 55.7406 121.764 55.6072C121.654 55.5245 121.544 55.4372 121.438 55.3452C121.369 55.2947 121.3 55.2349 121.231 55.1751C121.139 55.097 121.047 55.0189 120.955 54.9361C120.812 54.8212 120.679 54.6925 120.55 54.573C120.032 54.096 119.542 53.5895 119.083 53.056C118.927 52.8813 118.779 52.7066 118.637 52.5228C118.604 52.4866 118.573 52.4482 118.545 52.4079C116.23 49.4864 114.815 45.9546 114.474 42.2432C114.132 38.5319 114.879 34.8015 116.623 31.5071C118.366 28.2127 121.032 25.4968 124.293 23.6906C127.555 21.8845 131.272 21.0662 134.991 21.3356C138.71 21.605 142.27 22.9505 145.237 25.2078C148.204 27.4652 150.449 30.5369 151.699 34.0481C152.95 37.5594 153.15 41.3585 152.277 44.9818C151.404 48.6052 149.495 51.8962 146.782 54.4535Z" fill="#3F3D56"/>
<path d="M49.5978 142.224L53.3183 142.224L55.0881 127.88L49.5972 127.881L49.5978 142.224Z" fill="#A0616A"/>
<path d="M48.6489 141.01L55.9759 141.01H55.9762C57.2145 141.01 58.4021 141.502 59.2778 142.377C60.1535 143.252 60.6454 144.439 60.6455 145.677V145.829L48.6491 145.829L48.6489 141.01Z" fill="#2F2E41"/>
<path d="M63.5572 142.224L67.2778 142.224L69.0476 127.88L63.5566 127.881L63.5572 142.224Z" fill="#A0616A"/>
<path d="M62.6084 141.01L69.9353 141.01H69.9357C71.174 141.01 72.3616 141.502 73.2373 142.377C74.1129 143.252 74.6049 144.439 74.605 145.677V145.829L62.6086 145.829L62.6084 141.01Z" fill="#2F2E41"/>
<path d="M38.3089 85.5446C38.6134 85.2187 38.8427 84.8301 38.9807 84.406C39.1186 83.9819 39.1619 83.5328 39.1074 83.0902C39.0529 82.6476 38.902 82.2224 38.6653 81.8444C38.4286 81.4664 38.1118 81.1449 37.7374 80.9025L40.3224 70.3755L35.014 72.2661L33.3731 81.9729C33.0074 82.6287 32.8951 83.3958 33.0574 84.1288C33.2197 84.8618 33.6454 85.5099 34.2538 85.9501C34.8622 86.3904 35.6111 86.5923 36.3584 86.5175C37.1058 86.4428 37.7998 86.0966 38.3089 85.5446Z" fill="#9E616A"/>
<path d="M77.8025 84.6347C77.498 84.3088 77.2687 83.9202 77.1308 83.4961C76.9928 83.072 76.9496 82.6229 77.0041 82.1803C77.0585 81.7377 77.2095 81.3125 77.4462 80.9345C77.6829 80.5565 77.9996 80.235 78.3741 79.9926L75.7891 69.4656L81.0975 71.3562L82.7384 81.063C83.1041 81.7188 83.2164 82.4859 83.0541 83.2189C82.8917 83.9519 82.466 84.6 81.8576 85.0402C81.2492 85.4805 80.5004 85.6824 79.753 85.6076C79.0056 85.5329 78.3116 85.1867 77.8025 84.6347Z" fill="#9E616A"/>
<path d="M43.2041 78.1656L48.3609 138.548L55.9064 137.86L58.9262 91.193L61.6144 109.671L62.1527 139.023L68.9808 138.568L72.7723 106.992L71.8422 76.4108L45.9208 73.787L43.2041 78.1656Z" fill="#2F2E41"/>
<path d="M57.3896 23.2188C61.7114 23.2188 65.2148 19.7169 65.2148 15.3972C65.2148 11.0774 61.7114 7.57556 57.3896 7.57556C53.0679 7.57556 49.5645 11.0774 49.5645 15.3972C49.5645 19.7169 53.0679 23.2188 57.3896 23.2188Z" fill="#A0616A"/>
<path d="M54.9118 9.13984C54.9118 9.13984 58.5635 10.1175 60.4546 10.5086C62.3457 10.8997 62.1501 9.79164 62.1501 9.79164C62.1501 9.79164 64.6281 10.1175 64.4976 9.85681C64.3672 9.59609 65.541 8.22732 64.1716 6.66299C62.8022 5.09867 63.1934 3.92544 63.1934 3.92544H62.0197L61.6936 3.46917H59.8677C59.8677 3.46917 57.8491 1.69984 54.2625 2.22127C50.676 2.7427 46.4345 4.12097 46.0432 6.27192C45.9902 6.56367 45.9203 6.88779 45.8392 7.23014C44.8585 11.3687 46.9423 15.2409 49.1035 18.9044C49.6347 19.8048 52.2039 21.7681 52.1382 20.4211C52.0725 19.0741 49.8254 16.0489 51.3904 15.8534C52.9555 15.6578 55.6291 11.6819 54.9118 9.13984Z" fill="#2F2E41"/>
<path d="M49.2469 25.8906H63.0279L72.7722 77.3279C72.7722 77.3279 64.2769 78.054 59.4214 79.874C54.5659 81.694 46.4941 75.7166 46.4941 75.7166L49.2469 25.8906Z" fill="#E75659"/>
<path d="M50.9674 31.6993V25.8906L49.407 25.8811L38.0066 33.1262L40.4804 72.8208C40.4804 72.8208 43.4082 86.0636 47.8491 85.9262C52.2899 85.7889 55.7141 38.5792 50.9674 31.6993Z" fill="#2F2E41"/>
<path d="M41.6686 34.2226L38.0066 33.1261C38.0066 33.1261 35.2957 33.9193 35.2957 36.6493C35.2957 39.3793 32.96 78.1655 32.96 78.1655L40.38 78.821L41.972 59.0957L41.6686 34.2226Z" fill="#2F2E41"/>
<path d="M62.0009 29.6727L61.271 25.8906L63.3665 25.5778L70.9533 28.6111C70.9533 28.6111 77.7813 78.509 74.7466 80.0256C71.7119 81.5423 69.6629 80.3672 69.6629 80.3672C69.6629 80.3672 59.6815 43.5653 61.4481 38.5907L62.0009 29.6727Z" fill="#2F2E41"/>
<path d="M65.6423 29.3694L66.9371 28.806C66.9371 28.806 70.7375 26.9237 72.8937 30.7248C75.0499 34.526 82.6366 76.9923 82.6366 76.9923L76.3942 78.1655L71.7272 62.8826L65.6423 29.3694Z" fill="#2F2E41"/>
<path d="M115.925 146H0.303469C0.222984 146 0.145795 145.968 0.0888838 145.911C0.0319723 145.854 0 145.777 0 145.697C0 145.616 0.0319723 145.539 0.0888838 145.482C0.145795 145.425 0.222984 145.393 0.303469 145.393H115.925C116.006 145.393 116.083 145.425 116.14 145.482C116.197 145.539 116.229 145.616 116.229 145.697C116.229 145.777 116.197 145.854 116.14 145.911C116.083 145.968 116.006 146 115.925 146Z" fill="#CACACA"/>
</svg>
