<svg width="34" height="30" viewBox="0 0 34 30" fill="none" xmlns="http://www.w3.org/2000/svg">
<path fill-rule="evenodd" clip-rule="evenodd" d="M16.1464 3.05952C13.9926 3.37088 12.1477 4.98196 11.5275 7.09313C11.3913 7.55672 11.3671 7.79489 11.3704 8.64117C11.374 9.58366 11.3874 9.67913 11.6014 10.2966C11.9002 11.1584 12.2938 11.8034 12.9006 12.4254C14.0435 13.5969 15.3715 14.1583 17 14.1583C18.6453 14.1583 19.9971 13.5751 21.1489 12.3682C22.5669 10.8824 23.0271 8.73104 22.348 6.76273C21.4763 4.23667 18.8505 2.6687 16.1464 3.05952ZM4.62682 9.53959C3.33316 9.87364 2.25049 10.861 1.81962 12.0998C1.3798 13.3641 1.65762 14.8943 2.51089 15.9075C4.06495 17.7528 6.80979 17.8873 8.49737 16.2008C9.31915 15.3796 9.67836 14.5291 9.68011 13.4006C9.6841 10.7889 7.18461 8.87914 4.62682 9.53959ZM27.5021 9.50241C25.9363 9.85322 24.7098 11.0742 24.3832 12.6073C24.2534 13.2167 24.2535 13.586 24.3837 14.1918C24.7376 15.8383 26.1017 17.1082 27.7747 17.3485C30.2959 17.7107 32.538 15.6741 32.3786 13.1666C32.2745 11.5286 31.184 10.1318 29.6 9.60753C29.0151 9.41391 28.1014 9.36818 27.5021 9.50241ZM15.4254 15.9256C12.198 16.4935 9.48885 18.8484 8.50409 21.9418C8.19436 22.9149 8.11248 23.572 8.11248 25.0857C8.11248 26.6304 8.13312 26.7111 8.57428 26.8928C8.91816 27.0344 25.0769 27.0364 25.4206 26.8948C25.8864 26.703 25.9056 26.6134 25.8703 24.7906C25.8357 23.0045 25.7563 22.5453 25.2653 21.293C24.1855 18.5388 21.5396 16.4335 18.5129 15.9201C17.74 15.7891 16.1858 15.7918 15.4254 15.9256ZM4.54102 19.0905C3.40804 19.3132 2.37765 19.8809 1.55258 20.737C0.943957 21.3685 0.560044 21.9983 0.264306 22.8503C0.0420482 23.4906 0.0361699 23.538 0.00887749 24.9272C-0.0226137 26.5283 0.00985729 26.6752 0.439607 26.8762C0.650809 26.9749 1.04382 26.9889 3.6093 26.989L6.53792 26.9891L6.51482 25.3313C6.49691 24.0402 6.51734 23.5129 6.60727 22.9475C6.75157 22.0403 7.12386 20.8665 7.52345 20.0587C7.69176 19.7184 7.80659 19.4196 7.77853 19.3947C7.69518 19.3208 7.05815 19.138 6.61252 19.0601C6.06513 18.9645 5.11059 18.9785 4.54102 19.0905ZM27.3221 19.0668C26.9172 19.1404 26.2978 19.3267 26.2169 19.3992C26.1863 19.4265 26.2896 19.7025 26.4465 20.0123C26.7845 20.68 27.1589 21.7593 27.3353 22.5744C27.4404 23.0604 27.4621 23.4884 27.4621 25.0748V26.9889H30.3907C32.9563 26.9889 33.3492 26.9749 33.5604 26.8762C33.9901 26.6752 34.0226 26.5283 33.9911 24.9272C33.9638 23.538 33.958 23.4906 33.7357 22.8503C33.44 21.9983 33.056 21.3685 32.4474 20.737C31.6029 19.8607 30.5852 19.3084 29.4051 19.0859C28.8295 18.9773 27.8624 18.9684 27.3221 19.0668Z" fill="#A6A6A6"/>
</svg>
