<svg width="30" height="30" viewBox="0 0 30 30" fill="none" xmlns="http://www.w3.org/2000/svg">
<g clip-path="url(#clip0_352_774)">
<path fill-rule="evenodd" clip-rule="evenodd" d="M14.3125 0.0866019C13.5534 0.300293 13.764 0.105235 7.01396 6.84645C3.50782 10.348 0.561789 13.3288 0.46716 13.4704C-0.258641 14.5566 -0.112566 16.01 0.815676 16.9383C1.36118 17.4838 2.01345 17.7519 2.7979 17.7532L3.22271 17.7539V22.4769C3.22271 27.673 3.21357 27.5275 3.58663 28.2668C3.85042 28.7896 4.48716 29.4018 5.03911 29.6633C5.28081 29.7778 5.61831 29.9004 5.78905 29.9357C5.98804 29.9769 7.06376 30 8.78331 30H11.4671L11.6608 29.8682C11.7673 29.7956 11.9096 29.6619 11.9771 29.571C12.0978 29.408 12.1001 29.348 12.129 25.4987C12.1556 21.9476 12.1675 21.575 12.2591 21.4076C12.4097 21.1325 12.7101 20.8556 13.0072 20.718C13.2564 20.6027 13.3707 20.5957 15 20.5957C16.6318 20.5957 16.7433 20.6026 16.9922 20.7185C17.3 20.8618 17.588 21.1405 17.7366 21.439C17.8337 21.634 17.8441 21.949 17.8711 25.5176C17.899 29.1916 17.906 29.394 18.0124 29.5697C18.0739 29.6713 18.2225 29.8098 18.3426 29.8773C18.5553 29.9968 18.6295 30 21.2307 30C22.9402 30 24.0122 29.9769 24.211 29.9357C25.3653 29.6968 26.418 28.6755 26.6872 27.5336C26.7622 27.2153 26.7758 26.4429 26.7765 22.4561L26.7774 17.7539L27.2022 17.7532C27.9902 17.7519 28.6389 17.4838 29.1917 16.931C29.5489 16.5738 29.8558 16.0254 29.9207 15.6286C29.9406 15.507 29.9798 15.3934 30.0077 15.3761C30.0357 15.3588 30.0586 15.1601 30.0586 14.9345C30.0586 14.7089 30.0356 14.5386 30.0074 14.556C29.9792 14.5734 29.94 14.4893 29.9203 14.3691C29.9007 14.2488 29.8036 13.979 29.7047 13.7695C29.538 13.4164 29.0606 12.9239 23.156 7.01391C19.6532 3.50777 16.6713 0.561739 16.5296 0.46711C15.9211 0.0605277 14.9792 -0.101132 14.3125 0.0866019ZM0.0197382 15C0.0197382 15.2417 0.0301093 15.3406 0.042707 15.2197C0.0553632 15.0989 0.0553632 14.9012 0.042707 14.7803C0.0301093 14.6595 0.0197382 14.7583 0.0197382 15Z" fill="#E75659"/>
</g>
<defs>
<clipPath id="clip0_352_774">
<rect width="30" height="30" fill="white"/>
</clipPath>
</defs>
</svg>
