<svg width="24" height="24" viewBox="0 0 24 24" fill="none" xmlns="http://www.w3.org/2000/svg">
<path fill-rule="evenodd" clip-rule="evenodd" d="M3.0097 4.5886C2.70117 4.69547 2.45934 4.88546 2.26246 5.17575C2.06277 5.47003 2.00071 5.71782 2.02654 6.11724C2.0617 6.66038 2.3601 7.1048 2.85192 7.3463L3.11727 7.47661H12.0001H20.8829L21.1483 7.3463C21.4397 7.20319 21.688 6.95686 21.8534 6.64669C21.9436 6.47747 21.9607 6.37435 21.9607 6.00005C21.9607 5.62575 21.9436 5.52263 21.8534 5.35341C21.688 5.04324 21.4397 4.79691 21.1483 4.6538L20.8829 4.52349L12.0704 4.51303C3.62957 4.50305 3.24745 4.50624 3.0097 4.5886ZM3.0097 10.5886C2.70117 10.6955 2.45934 10.8855 2.26246 11.1758C2.06277 11.47 2.00071 11.7178 2.02654 12.1172C2.0617 12.6604 2.3601 13.1048 2.85192 13.3463L3.11727 13.4766H12.0001H20.8829L21.1483 13.3463C21.4397 13.2032 21.688 12.9569 21.8534 12.6467C21.9436 12.4775 21.9607 12.3743 21.9607 12C21.9607 11.6258 21.9436 11.5226 21.8534 11.3534C21.688 11.0432 21.4397 10.7969 21.1483 10.6538L20.8829 10.5235L12.0704 10.513C3.62957 10.503 3.24745 10.5062 3.0097 10.5886ZM3.0097 16.5886C2.70117 16.6955 2.45934 16.8855 2.26246 17.1758C2.06277 17.47 2.00071 17.7178 2.02654 18.1172C2.0617 18.6604 2.3601 19.1048 2.85192 19.3463L3.11727 19.4766H12.0001H20.8829L21.1483 19.3463C21.4397 19.2032 21.688 18.9569 21.8534 18.6467C21.9436 18.4775 21.9607 18.3743 21.9607 18C21.9607 17.6258 21.9436 17.5226 21.8534 17.3534C21.688 17.0432 21.4397 16.7969 21.1483 16.6538L20.8829 16.5235L12.0704 16.513C3.62957 16.503 3.24745 16.5062 3.0097 16.5886Z" fill="#A6A6A6"/>
</svg>
