<svg width="30" height="30" viewBox="0 0 30 30" fill="none" xmlns="http://www.w3.org/2000/svg">
<path fill-rule="evenodd" clip-rule="evenodd" d="M14.1797 0.0332042C11.3003 0.356759 9.21448 1.32567 7.32091 3.2193C5.62813 4.91201 4.60614 6.95348 4.2445 9.36426C4.16651 9.88399 4.1518 10.2642 4.17647 11.1221C4.20817 12.2251 4.26395 12.6238 4.53846 13.7112C5.39915 17.1201 7.9693 21.734 11.6538 26.4844C12.6889 27.8189 14.0434 29.4474 14.3448 29.7197C14.7532 30.0886 15.2469 30.0886 15.6552 29.7197C15.9567 29.4474 17.3112 27.8189 18.3463 26.4844C22.0307 21.734 24.6009 17.1201 25.4616 13.7112C25.7361 12.6238 25.7919 12.2251 25.8236 11.1221C25.8482 10.2642 25.8335 9.88399 25.7556 9.36426C25.3939 6.95348 24.3719 4.91201 22.6791 3.2193C21.0077 1.54779 19.0278 0.528732 16.6992 0.14131C16.2048 0.059044 14.5728 -0.0109755 14.1797 0.0332042ZM14.3246 5.44797C13.7007 5.53609 13.227 5.68317 12.6179 5.97807C11.0036 6.75965 9.89499 8.25373 9.60782 10.0348C9.51413 10.6162 9.56546 11.6693 9.71423 12.2168C10.2797 14.2973 11.9379 15.8494 14.0039 16.232C14.8196 16.3831 15.963 16.303 16.7285 16.0413C18.4843 15.4409 19.7915 14.0355 20.2858 12.2168C20.4346 11.6693 20.4859 10.6162 20.3922 10.0348C20.1052 8.25467 18.9992 6.76352 17.3822 5.9766C17.0549 5.81734 16.5652 5.63442 16.294 5.57014C15.7148 5.43285 14.8234 5.37754 14.3246 5.44797Z" fill="#A6A6A6"/>
</svg>
