<svg width="69" height="68" viewBox="0 0 69 68" fill="none" xmlns="http://www.w3.org/2000/svg">
<path d="M36.6368 46.693C41.8808 46.693 46.132 42.4438 46.132 37.2022C46.132 31.9605 41.8808 27.7113 36.6368 27.7113C31.3927 27.7113 27.1416 31.9605 27.1416 37.2022C27.1416 42.4438 31.3927 46.693 36.6368 46.693Z" fill="#A0616A"/>
<path d="M33.63 29.6096C33.63 29.6096 38.0611 30.7959 40.3558 31.2705C42.6504 31.745 42.413 30.4005 42.413 30.4005C42.413 30.4005 45.4199 30.7959 45.2616 30.4795C45.1033 30.1632 46.5276 28.5023 44.866 26.6041C43.2043 24.7059 43.6791 23.2823 43.6791 23.2823H42.2548L41.8592 22.7287H39.6436C39.6436 22.7287 37.1941 20.5817 32.8422 21.2145C28.4902 21.8472 23.3435 23.5196 22.8688 26.1296C22.8044 26.4836 22.7196 26.8769 22.6212 27.2923C21.4311 32.3141 23.9596 37.0127 26.5822 41.4581C27.2267 42.5506 30.3442 44.9329 30.2645 43.2984C30.1848 41.6639 27.4581 37.9932 29.3572 37.7559C31.2562 37.5186 34.5004 32.6941 33.63 29.6096Z" fill="#2F2E41"/>
<path d="M31.2507 67.8844C29.4177 67.7378 27.6 67.4393 25.8164 66.992L25.9164 65.0993L26.7478 50.0504L26.7553 49.9349H43.4814L46.1062 63.7913L46.4602 65.6609C45.7676 65.9302 45.067 66.1841 44.3514 66.4072C44.3435 66.4072 44.3435 66.4149 44.336 66.4149C43.343 66.7226 42.3346 66.9919 41.3184 67.215C39.9672 67.5064 38.5998 67.717 37.2236 67.8459C36.1596 67.9515 35.091 68.0028 34.0218 67.9998C33.098 67.9998 32.1666 67.9614 31.2507 67.8844Z" fill="#E75659"/>
<path d="M20.4975 65.2071C19.8048 64.9071 19.135 64.5839 18.4732 64.2454L18.1883 64.0992C17.9959 63.9992 17.7959 63.8915 17.6035 63.7837C17.3415 63.6376 17.0875 63.4914 16.8413 63.3452C16.6026 63.2067 16.3564 63.0606 16.1178 62.9144C16.1024 62.9067 16.0949 62.899 16.0795 62.899C15.2481 62.3681 14.4322 61.8218 13.647 61.2295C13.5163 61.1294 13.3853 61.0294 13.2543 60.9294L13.116 58.7136L13.3159 58.5905L26.7477 50.0504L26.9323 49.935L26.9477 49.9274L28.8412 49.935V56.9825C29.9112 58.5289 30.6347 61.768 31.0812 66.0072C31.1428 66.6151 31.1966 67.2382 31.2507 67.8845C29.4177 67.7379 27.6 67.4394 25.8164 66.992C25.624 66.9536 25.4391 66.9074 25.2466 66.8535C24.1249 66.5601 23.02 66.2057 21.937 65.7918C21.6059 65.6687 21.2826 65.5379 20.9594 65.4071L20.9286 65.3917C20.7899 65.3302 20.6362 65.2687 20.4975 65.2071Z" fill="#2F2E41"/>
<path d="M17.6032 63.7837C17.3413 63.6376 17.0872 63.4914 16.841 63.3452C16.6024 63.2067 16.3562 63.0606 16.1175 62.9144C16.1021 62.9067 16.0946 62.899 16.0792 62.899C15.2479 62.3681 14.4319 61.8218 13.6468 61.2295C13.516 61.1294 13.3851 61.0294 13.254 60.9294C13.1928 60.8756 13.1311 60.8294 13.0616 60.7755C12.5692 60.3985 12.0919 60.0062 11.63 59.5907C11.6071 59.5753 11.5917 59.5522 11.5684 59.5368C12.0348 59.1784 12.5577 58.9002 13.1157 58.7136L13.6622 58.8752L17.557 60.0446L17.58 61.6218L17.6032 63.7837Z" fill="#2F2E41"/>
<path d="M50.4011 63.8068C50.17 63.9299 49.9392 64.053 49.7084 64.1684C49.6543 64.1992 49.6085 64.2222 49.5622 64.2454C49.2541 64.3992 48.9541 64.5531 48.6463 64.6992C48.6384 64.7069 48.623 64.707 48.623 64.7147C48.6076 64.7224 48.5847 64.7301 48.5693 64.7378C47.8766 65.0686 47.176 65.3763 46.46 65.661C45.7674 65.9303 45.0668 66.1842 44.3512 66.4073C44.3433 66.4073 44.3433 66.415 44.3358 66.415C43.3428 66.7227 42.3344 66.992 41.3182 67.2151C41.3068 66.5831 41.3899 65.953 41.5647 65.3455L41.5723 65.2378L42.2345 54.5281L41.349 49.935L43.8893 49.558L57.8597 57.0748C57.8597 57.0748 56.3202 58.6135 50.0008 61.8911C49.4421 62.1809 50.2624 63.1451 50.4011 63.8068Z" fill="#2F2E41"/>
<path d="M37.0542 65.9995C36.0533 66.0918 35.0374 66.138 34.0215 66.138C33.036 66.138 32.0585 66.0995 31.0809 66.0072C31.1426 66.615 31.1963 67.2382 31.2505 67.8845C32.1664 67.9614 33.0977 67.9999 34.0215 67.9999C35.0907 68.0029 36.1594 67.9515 37.2233 67.846C38.5996 67.7171 39.9669 67.5064 41.3181 67.2151C41.3067 66.5831 41.3898 65.953 41.5647 65.3455L41.5722 65.2378C40.0863 65.5993 38.5764 65.8538 37.0542 65.9995ZM66.1417 22.8223C64.5151 18.1522 61.889 13.8928 58.4464 10.3414C55.0038 6.78987 50.8276 4.03171 46.209 2.25922C41.5904 0.486727 36.6406 -0.257444 31.7047 0.0786021C26.7688 0.414648 21.9657 1.82282 17.6302 4.20493C13.2947 6.58703 9.53127 9.88575 6.60226 13.871C3.67325 17.8563 1.64918 22.4322 0.671221 27.2797C-0.30674 32.1272 -0.215067 37.1296 0.939844 41.938C2.09476 46.7464 4.2851 51.2452 7.35815 55.1206C7.66595 55.5053 7.98168 55.89 8.30492 56.2593C8.33574 56.29 8.35115 56.3131 8.37409 56.3362C9.16874 57.2522 10.0142 58.123 10.9065 58.9444C11.1222 59.1444 11.3451 59.3444 11.5684 59.5368C11.5917 59.5521 11.6071 59.5752 11.63 59.5906C12.0919 60.0061 12.5692 60.3985 13.0616 60.7755C13.1311 60.8293 13.1927 60.8755 13.254 60.9294C13.3852 61.0294 13.5161 61.1294 13.6468 61.2294C14.4319 61.8218 15.2478 62.368 16.0792 62.8989C16.0946 62.8989 16.1021 62.9066 16.1175 62.9143C16.3562 63.0605 16.6023 63.2066 16.841 63.3452C17.0876 63.4913 17.3416 63.6375 17.6032 63.7837C17.7957 63.8914 17.9956 63.9991 18.188 64.0991L18.4729 64.2453C19.1348 64.5838 19.8045 64.907 20.4972 65.207C20.6359 65.2686 20.7896 65.3301 20.9283 65.3917L20.9591 65.4071C21.2823 65.5378 21.6055 65.6686 21.9367 65.7918C23.0197 66.2056 24.1246 66.5601 25.2463 66.8535C25.4387 66.9074 25.6237 66.9535 25.8161 66.992C27.5997 67.4393 29.4174 67.7379 31.2505 67.8845C32.1664 67.9614 33.0977 67.9999 34.0215 67.9999C35.0907 68.0029 36.1594 67.9515 37.2233 67.846C38.5996 67.7171 39.9669 67.5064 41.3181 67.2151C42.3344 66.992 43.3427 66.7227 44.3357 66.415C44.3432 66.415 44.3432 66.4073 44.3511 66.4073C45.0667 66.1842 45.7673 65.9303 46.4599 65.661C47.1759 65.3763 47.8765 65.0686 48.5692 64.7378C48.5846 64.73 48.6075 64.7224 48.6229 64.7147C48.6229 64.7069 48.6383 64.707 48.6462 64.6992C48.954 64.5531 49.254 64.3992 49.5621 64.2453C49.6084 64.2222 49.6542 64.1992 49.7084 64.1684C49.9391 64.053 50.1699 63.9299 50.401 63.8068C50.4164 63.7991 50.4239 63.7914 50.4394 63.7837C51.0475 63.4452 51.648 63.0913 52.2408 62.7143C52.4024 62.6143 52.564 62.5143 52.7256 62.3988C52.9643 62.2527 53.195 62.0911 53.4183 61.9295C53.7186 61.7218 54.0185 61.5064 54.3113 61.2832C54.4085 61.2208 54.5011 61.1514 54.5883 61.0755C55.3042 60.537 55.9969 59.9676 56.6588 59.3675C61.6786 54.8967 65.259 49.0381 66.947 42.5329C68.6349 36.0277 68.3547 29.1683 66.1417 22.8223ZM56.0815 57.3826C55.2483 58.1661 54.3748 58.9057 53.4645 59.5983C53.2646 59.7522 53.0564 59.9061 52.8489 60.0446C52.6486 60.1984 52.4487 60.3446 52.2408 60.4831C52.0638 60.6062 51.8868 60.7293 51.7019 60.8447C51.6865 60.8601 51.6635 60.8678 51.6481 60.8832C51.5169 60.9755 51.3787 61.0601 51.2479 61.1448C50.8397 61.3987 50.4165 61.6526 50.0008 61.8911C49.9008 61.9449 49.8084 62.0064 49.7084 62.0603C49.6543 62.0911 49.6005 62.1219 49.5389 62.1526C49.3081 62.2834 49.077 62.3988 48.8462 62.5219C48.8154 62.545 48.7771 62.5527 48.7462 62.5758C48.7346 62.5776 48.7239 62.583 48.7154 62.5912C48.5538 62.6758 48.3922 62.7527 48.2306 62.8297C48.0919 62.8989 47.9611 62.9682 47.8224 63.0297C47.2606 63.299 46.6833 63.5529 46.106 63.7914C45.4979 64.0376 44.8822 64.2607 44.2587 64.4684C44.1046 64.5223 43.943 64.5838 43.7814 64.63C43.05 64.8608 42.3189 65.0686 41.5722 65.2378C40.0863 65.5993 38.5764 65.8538 37.0542 65.9995C36.0533 66.0918 35.0374 66.138 34.0215 66.138C33.036 66.138 32.0585 66.0995 31.0809 66.0072C29.3372 65.8478 27.6097 65.5441 25.9162 65.0993C25.8545 65.0839 25.7854 65.0685 25.7237 65.0531C24.3346 64.6911 22.9736 64.2283 21.6518 63.6683C21.5827 63.6375 21.5057 63.6144 21.444 63.5837C21.367 63.5529 21.2978 63.5298 21.2362 63.499C21.1591 63.4682 21.09 63.4375 21.0208 63.4067C20.4435 63.1528 19.8816 62.8758 19.3197 62.5911L19.0578 62.4527C18.5575 62.1911 18.0648 61.9218 17.58 61.6217C17.4109 61.5294 17.2338 61.4217 17.0643 61.314C16.8719 61.1986 16.6795 61.0755 16.4946 60.9524C16.4487 60.9216 16.4026 60.8909 16.3562 60.8601C15.9251 60.5677 15.4866 60.2753 15.0709 59.9599C14.7785 59.7445 14.4936 59.5368 14.2087 59.3136C14.0238 59.1752 13.8392 59.029 13.6622 58.8751C13.5468 58.7905 13.4315 58.6905 13.3157 58.5904C13.162 58.4597 13.0079 58.3289 12.8542 58.1904C12.6155 57.998 12.3922 57.7826 12.1765 57.5825C11.3098 56.7842 10.49 55.9365 9.72114 55.0436C9.45956 54.7513 9.21301 54.4589 8.97473 54.1512C8.91915 54.0906 8.86766 54.0263 8.82062 53.9588C4.94551 49.0692 2.57789 43.1579 2.00662 36.9462C1.43535 30.7345 2.68513 24.4908 5.60347 18.977C8.52182 13.4631 12.9826 8.91746 18.4415 5.89448C23.9005 2.87151 30.1217 1.50192 36.3461 1.95284C42.5705 2.40375 48.5291 4.65567 53.495 8.43385C58.4608 12.212 62.2191 17.3531 64.3116 23.23C66.404 29.1068 66.74 35.4653 65.2786 41.5298C63.8172 47.5943 60.6215 53.1025 56.0815 57.3826Z" fill="#3F3D56"/>
</svg>
