<svg width="68" height="68" viewBox="0 0 68 68" fill="none" xmlns="http://www.w3.org/2000/svg">
<g clip-path="url(#clip0_516_4197)">
<path d="M34.6081 44.389C40.7037 44.389 45.6452 39.4475 45.6452 33.3519C45.6452 27.2563 40.7037 22.3148 34.6081 22.3148C28.5125 22.3148 23.571 27.2563 23.571 33.3519C23.571 39.4475 28.5125 44.389 34.6081 44.389Z" fill="#A0616A"/>
<path d="M25.4727 46.8605L27.7734 40.9808L39.6606 39.1913L40.9378 52.2067L28.9228 52.4624L25.4727 46.8605Z" fill="#A0616A"/>
<path d="M45.7522 35.3883C45.609 35.9622 45.3194 37.3286 44.8672 37.3353C44.4978 37.3407 44.1442 31.4128 44.5132 30.4323C44.9371 29.3059 43.8231 27.8809 42.984 27.1495C41.4752 25.8343 38.1259 28.6584 34.7203 27.379C34.63 27.3452 34.648 27.349 33.5725 26.9199C30.2633 25.5996 30.0894 25.5615 29.8998 25.5427C28.2956 25.3839 26.3378 26.6967 25.5384 28.2972C24.7074 29.961 25.4017 31.388 24.6202 35.4132C24.5292 35.8823 24.3861 36.551 24.1611 36.5609C23.7498 36.5788 23.3481 34.3818 23.2429 33.8063C22.8022 31.3954 22.3773 29.071 23.2429 26.4608C23.3374 26.1762 23.9193 25.1194 25.0793 23.0176C26.7505 19.9898 27.591 18.4702 27.8339 18.1972C29.5759 16.2382 32.7467 14.4511 35.4089 15.213C36.7545 15.5982 36.5132 16.2173 38.1635 16.8199C41.1044 17.8936 43.6603 16.5805 44.1317 17.5085C44.3814 18.0001 43.6828 18.4054 43.6726 19.3449C43.6552 20.9569 45.694 21.4227 46.8863 23.0176C47.5272 23.8751 48.6243 23.8843 45.7522 35.3883Z" fill="#2F2E41"/>
<path d="M59.4258 56.5742C58.981 57.074 58.5196 57.5635 58.0415 58.0416C51.6199 64.4632 43.0815 67.9999 34 67.9999C26.1506 67.9999 18.7076 65.3579 12.686 60.4944C12.6822 60.4919 12.6796 60.4893 12.6758 60.4854C11.877 59.8413 11.1037 59.1562 10.3572 58.4327C10.3712 58.3202 10.3866 58.209 10.4032 58.099C10.508 57.3577 10.6243 56.6508 10.7547 56.0003C11.822 50.6677 25.8655 45.0692 26.2311 44.9234C26.2362 44.9221 26.2388 44.9209 26.2388 44.9209C26.2388 44.9209 28.0461 51.5829 35.7907 51.4972C41.0658 51.4397 40.0433 44.9209 40.0433 44.9209C40.0433 44.9209 40.1072 44.9336 40.2273 44.9592C41.7509 45.2826 52.3293 47.6064 56.5026 50.7776C57.7744 51.7439 58.687 53.8019 59.3427 56.2559C59.3709 56.3607 59.3977 56.4681 59.4258 56.5742Z" fill="#E75659"/>
<path d="M37.2773 65.8982C36.2764 65.9905 35.2605 66.0367 34.2446 66.0367C33.2592 66.0367 32.2817 65.9982 31.3041 65.9059C31.3657 66.5137 31.4195 67.1369 31.4736 67.7831C32.3895 67.8601 33.3208 67.8986 34.2446 67.8986C35.3138 67.9016 36.3825 67.8502 37.4465 67.7447C38.8227 67.6158 40.1901 67.4051 41.5412 67.1138C41.5299 66.4818 41.613 65.8517 41.7878 65.2442L41.7953 65.1365C40.3094 65.498 38.7996 65.7525 37.2773 65.8982ZM66.3648 22.721C64.7383 18.0508 62.1121 13.7915 58.6695 10.24C55.2269 6.68855 51.0508 3.9304 46.4322 2.1579C41.8136 0.385409 36.8637 -0.358762 31.9279 -0.0227163C26.992 0.31333 22.1888 1.7215 17.8533 4.10361C13.5179 6.48571 9.75441 9.78443 6.8254 13.7697C3.8964 17.755 1.87233 22.3309 0.894366 27.1784C-0.0835959 32.0259 0.00807764 37.0283 1.16299 41.8367C2.3179 46.6451 4.50824 51.1439 7.5813 55.0193C7.8891 55.404 8.20483 55.7887 8.52807 56.1579C8.55889 56.1887 8.5743 56.2118 8.59723 56.2349C9.39188 57.1509 10.2373 58.0217 11.1296 58.843C11.3454 59.0431 11.5683 59.2431 11.7915 59.4355C11.8148 59.4508 11.8302 59.4739 11.8531 59.4893C12.315 59.9048 12.7924 60.2972 13.2847 60.6741C13.3543 60.728 13.4159 60.7742 13.4771 60.828C13.6083 60.9281 13.7392 61.0281 13.8699 61.1281C14.655 61.7205 15.471 62.2667 16.3023 62.7976C16.3177 62.7976 16.3253 62.8053 16.3407 62.813C16.5793 62.9592 16.8255 63.1053 17.0641 63.2438C17.3107 63.39 17.5648 63.5362 17.8264 63.6824C18.0188 63.7901 18.2187 63.8978 18.4112 63.9978L18.6961 64.144C19.3579 64.4825 20.0277 64.8057 20.7203 65.1057C20.859 65.1673 21.0128 65.2288 21.1514 65.2904L21.1822 65.3058C21.5055 65.4365 21.8287 65.5673 22.1598 65.6904C23.2429 66.1043 24.3477 66.4588 25.4695 66.7522C25.6619 66.8061 25.8468 66.8522 26.0393 66.8907C27.8228 67.338 29.6406 67.6366 31.4736 67.7831C32.3895 67.8601 33.3208 67.8986 34.2446 67.8986C35.3138 67.9016 36.3825 67.8502 37.4465 67.7447C38.8227 67.6158 40.1901 67.4051 41.5412 67.1138C42.5575 66.8907 43.5658 66.6214 44.5588 66.3136C44.5663 66.3136 44.5664 66.3059 44.5743 66.3059C45.2899 66.0828 45.9904 65.8289 46.6831 65.5596C47.3991 65.275 48.0996 64.9673 48.7923 64.6364C48.8077 64.6287 48.8306 64.621 48.8461 64.6133C48.8461 64.6056 48.8614 64.6056 48.8693 64.5979C49.1771 64.4518 49.4771 64.2979 49.7853 64.144C49.8315 64.1209 49.8774 64.0979 49.9315 64.0671C50.1623 63.9517 50.393 63.8286 50.6241 63.7055C50.6396 63.6978 50.6471 63.6901 50.6625 63.6824C51.2706 63.3439 51.8712 62.99 52.4639 62.613C52.6255 62.513 52.7871 62.413 52.9488 62.2975C53.1874 62.1513 53.4182 61.9898 53.6414 61.8282C53.9417 61.6205 54.2416 61.4051 54.5344 61.1819C54.6317 61.1195 54.7243 61.0501 54.8114 60.9742C55.5274 60.4357 56.22 59.8663 56.8819 59.2662C61.9017 54.7954 65.4821 48.9368 67.1701 42.4316C68.8581 35.9264 68.5779 29.0669 66.3648 22.721ZM56.3047 57.2812C55.4715 58.0648 54.598 58.8044 53.6877 59.497C53.4877 59.6509 53.2795 59.8048 53.0721 59.9432C52.8718 60.0971 52.6718 60.2433 52.464 60.3818C52.2869 60.5049 52.1099 60.628 51.925 60.7434C51.9096 60.7588 51.8867 60.7665 51.8713 60.7819C51.7401 60.8742 51.6018 60.9588 51.471 61.0434C51.0628 61.2973 50.6396 61.5512 50.224 61.7897C50.124 61.8436 50.0315 61.9051 49.9316 61.959C49.8774 61.9898 49.8237 62.0205 49.762 62.0513C49.5313 62.1821 49.3001 62.2975 49.0694 62.4206C49.0385 62.4437 49.0002 62.4514 48.9694 62.4745C48.9578 62.4763 48.947 62.4817 48.9386 62.4898C48.777 62.5745 48.6154 62.6514 48.4537 62.7283C48.3151 62.7976 48.1843 62.8668 48.0456 62.9284C47.4837 63.1977 46.9064 63.4515 46.3291 63.6901C45.721 63.9363 45.1054 64.1594 44.4818 64.3671C44.3277 64.421 44.1661 64.4825 44.0045 64.5287C43.2731 64.7595 42.5421 64.9673 41.7953 65.1365C40.3094 65.498 38.7996 65.7525 37.2773 65.8982C36.2764 65.9905 35.2605 66.0367 34.2446 66.0367C33.2592 66.0367 32.2817 65.9982 31.3041 65.9059C29.5603 65.7464 27.8328 65.4428 26.1393 64.998C26.0777 64.9826 26.0085 64.9672 25.9469 64.9518C24.5577 64.5898 23.1968 64.127 21.875 63.567C21.8058 63.5362 21.7288 63.5131 21.6672 63.4823C21.5901 63.4515 21.5209 63.4285 21.4593 63.3977C21.3823 63.3669 21.3131 63.3362 21.2439 63.3054C20.6666 63.0515 20.1048 62.7745 19.5429 62.4898L19.2809 62.3513C18.7807 62.0898 18.288 61.8205 17.8031 61.5204C17.634 61.4281 17.457 61.3204 17.2875 61.2127C17.095 61.0973 16.9026 60.9742 16.7177 60.8511C16.6719 60.8203 16.6257 60.7895 16.5794 60.7587C16.1483 60.4664 15.7097 60.174 15.294 59.8586C15.0016 59.6432 14.7167 59.4355 14.4318 59.2123C14.2469 59.0738 14.0624 58.9277 13.8854 58.7738C13.77 58.6892 13.6546 58.5891 13.5388 58.4891C13.3851 58.3583 13.231 58.2275 13.0773 58.0891C12.8386 57.8967 12.6154 57.6813 12.3997 57.4812C11.5329 56.6829 10.7131 55.8352 9.94428 54.9423C9.6827 54.6499 9.43616 54.3576 9.19787 54.0499C9.14229 53.9892 9.0908 53.925 9.04377 53.8575C5.16865 48.9679 2.80103 43.0566 2.22976 36.8449C1.65849 30.6332 2.90827 24.3895 5.82661 18.8757C8.74496 13.3618 13.2057 8.81614 18.6647 5.79316C24.1237 2.77019 30.3448 1.4006 36.5693 1.85152C42.7937 2.30244 48.7523 4.55435 53.7181 8.33253C58.6839 12.1107 62.4423 17.2518 64.5347 23.1286C66.6271 29.0055 66.9631 35.364 65.5017 41.4285C64.0403 47.4929 60.8447 53.0012 56.3047 57.2812Z" fill="#E75659"/>
</g>
<defs>
<clipPath id="clip0_516_4197">
<rect width="68" height="68" fill="white"/>
</clipPath>
</defs>
</svg>
