<svg width="30" height="30" viewBox="0 0 30 30" fill="none" xmlns="http://www.w3.org/2000/svg">
<path fill-rule="evenodd" clip-rule="evenodd" d="M10.4723 3.10886C10.004 3.26251 8.71083 3.88274 8.13947 4.22772C7.55293 4.58189 6.86046 5.0923 6.70481 5.28521C6.32873 5.75132 6.26969 6.30317 6.51967 7.01542C6.65797 7.40944 6.67732 7.53941 6.67716 8.07249C6.67705 8.55308 6.6519 8.75773 6.55692 9.05028C6.25175 9.99054 5.49752 10.7886 4.58012 11.1421C4.4216 11.2032 4.0511 11.298 3.75677 11.3528C2.99539 11.4947 2.64268 11.7218 2.36781 12.247C2.13507 12.6918 1.95698 14.2927 2.00913 15.472C2.07484 16.9587 2.22062 17.5025 2.65618 17.8862C2.9273 18.1249 3.11672 18.1996 3.78203 18.3296C4.63379 18.4961 5.06403 18.7127 5.63799 19.2644C6.03028 19.6414 6.27349 20.0262 6.46475 20.5729C6.59015 20.9311 6.6127 21.0833 6.6133 21.5765C6.614 22.1175 6.59942 22.1983 6.40382 22.7393C5.93497 24.036 6.14966 24.4529 7.86374 25.5745C8.5631 26.0321 9.54676 26.5347 10.294 26.8161C10.9335 27.057 11.3211 27.0607 11.7936 26.8305C12.0479 26.7067 12.1999 26.5815 12.4197 26.3152C12.7903 25.8661 12.998 25.6782 13.3915 25.4355C14.8269 24.5505 16.7166 24.8726 17.8299 26.1918C18.3481 26.806 18.9963 27.0242 19.6722 26.8121C20.5647 26.532 22.4494 25.4442 23.1926 24.7803C23.8204 24.2194 23.9542 23.6417 23.6469 22.8186C23.4539 22.302 23.4035 21.4877 23.5314 20.9564C23.8254 19.7362 24.7814 18.7991 26.0325 18.5049C26.927 18.2945 26.9648 18.2793 27.2688 18.0085C27.4393 17.8566 27.603 17.6521 27.6544 17.5269C27.8809 16.975 28.0407 15.531 27.9908 14.4873C27.9524 13.6809 27.8174 12.7249 27.7045 12.4593C27.4773 11.9244 27.0677 11.606 26.444 11.4792C25.5588 11.2992 25.1135 11.072 24.5405 10.5079C24.0869 10.0613 23.7894 9.55386 23.6401 8.972C23.5203 8.50499 23.5606 7.58893 23.72 7.1559C23.9487 6.53451 23.912 6.02933 23.6061 5.58684C23.286 5.12369 21.9895 4.24088 20.7458 3.63914C19.4295 3.00226 18.9667 2.89359 18.3884 3.08571C18.187 3.15263 17.9842 3.30532 17.5162 3.7421C17.0374 4.18908 16.8189 4.35235 16.4985 4.50261C15.5191 4.96185 14.4544 4.95868 13.4882 4.49368C13.1695 4.3403 12.9366 4.16588 12.4734 3.73375C12.0135 3.30458 11.8107 3.15242 11.6099 3.08571C11.2623 2.97028 10.8703 2.97821 10.4723 3.10886ZM14.2673 10.825C12.3742 11.1908 11.0322 12.5344 10.711 14.3852C10.4966 15.6209 10.9848 17.0529 11.9373 17.9813C12.7737 18.7968 13.7797 19.1958 14.9992 19.1958C15.9434 19.1958 16.6104 19.0096 17.3486 18.5397C19.6622 17.0673 20.0069 13.9082 18.061 12.0112C17.5356 11.499 16.8174 11.0912 16.1086 10.9026C15.7163 10.7983 14.6402 10.7529 14.2673 10.825Z" fill="#A6A6A6"/>
</svg>
